<svg width="16" height="16" viewBox="0 0 16 16" fill="none" xmlns="http://www.w3.org/2000/svg">
<path d="M1.33341 3.51341L2.18675 2.66675L13.3334 13.8134L12.4867 14.6667L10.4334 12.6134C9.66675 12.8667 8.85341 13.0001 8.00008 13.0001C4.66675 13.0001 1.82008 10.9267 0.666748 8.00008C1.12675 6.82675 1.86008 5.79341 2.79341 4.97341L1.33341 3.51341ZM8.00008 6.00008C8.53051 6.00008 9.03922 6.21079 9.41429 6.58587C9.78937 6.96094 10.0001 7.46965 10.0001 8.00008C10.0004 8.22713 9.96209 8.45257 9.88675 8.66675L7.33341 6.11341C7.54759 6.03807 7.77304 5.99974 8.00008 6.00008ZM8.00008 3.00008C11.3334 3.00008 14.1801 5.07341 15.3334 8.00008C14.789 9.38204 13.8645 10.5816 12.6667 11.4601L11.7201 10.5067C12.642 9.86905 13.3856 9.00615 13.8801 8.00008C13.3412 6.89999 12.5044 5.97317 11.465 5.32498C10.4255 4.6768 9.22507 4.33326 8.00008 4.33341C7.27341 4.33341 6.56008 4.45341 5.89341 4.66675L4.86675 3.64675C5.82675 3.23341 6.88675 3.00008 8.00008 3.00008ZM2.12008 8.00008C2.65898 9.10017 3.49572 10.027 4.53517 10.6752C5.57462 11.3234 6.77509 11.6669 8.00008 11.6667C8.46008 11.6667 8.91341 11.6201 9.33341 11.5267L7.81341 10.0001C7.34952 9.95036 6.91663 9.74333 6.58673 9.41343C6.25683 9.08353 6.0498 8.65064 6.00008 8.18675L3.73341 5.91341C3.07341 6.48008 2.52008 7.18675 2.12008 8.00008Z" fill="#041D0F"/>
</svg>
