<svg width="95" height="95" viewBox="0 0 95 95" fill="none" xmlns="http://www.w3.org/2000/svg">
<g clip-path="url(#clip0_277_4875)">
<path fill-rule="evenodd" clip-rule="evenodd" d="M41.0582 60.6624C40.2786 61.1871 39.4912 61.7069 38.8032 62.1067C26.5703 69.3018 11.4507 73.7199 -2.72248 72.8773C-3.23645 72.8426 -3.64616 72.4219 -3.61495 71.9032C-3.58374 71.3845 -3.15255 71.0117 -2.63792 71.0468C11.2192 71.7924 25.9343 67.4941 37.8604 60.476C38.2475 60.2568 38.6812 59.9754 39.1175 59.6957C38.1706 59.0475 37.5543 58.2365 37.1738 57.3854C36.6339 56.0821 36.6405 54.5644 37.0581 53.0204C37.6498 50.863 38.9983 48.7048 40.6358 46.9854C41.9075 45.6767 43.3638 44.6559 44.6546 44.2537C45.7158 43.8951 46.6865 43.9309 47.5013 44.3221C48.3572 44.7376 49.0687 45.6044 49.392 47.138C49.9937 49.7309 49.1308 52.266 47.4807 54.6046C46.2742 56.3098 44.658 57.8624 42.994 59.2081C43.6507 59.327 44.3898 59.4049 45.2139 59.4435C51.5004 59.5717 59.7076 55.8207 67.8202 50.4915C80.1553 42.372 92.2542 30.5322 96.915 22.7188C97.1521 22.3216 97.7511 22.1377 98.1974 22.401C98.6436 22.6643 98.769 23.2756 98.532 23.6728C93.7529 31.685 81.4497 43.762 68.8409 52.0781C60.3632 57.6395 51.7179 61.491 45.1745 61.3007C43.541 61.2321 42.1591 61.0434 41.0582 60.6624ZM40.7959 58.5381C39.8477 58.0681 39.2327 57.4369 38.8887 56.6969C38.5016 55.7523 38.5673 54.6273 38.8522 53.5422C39.3542 51.6899 40.555 49.8019 41.9747 48.3121C42.9674 47.2864 44.0915 46.4282 45.1181 46.0492C45.6898 45.8494 46.2126 45.7992 46.6741 45.982C47.1051 46.2363 47.3864 46.7609 47.5929 47.5093C48.0372 49.6513 47.2444 51.6899 45.9475 53.5208C44.6048 55.4142 42.6333 57.2051 40.7959 58.5381Z" fill="#EEECF9"/>
<path fill-rule="evenodd" clip-rule="evenodd" d="M-2.57152 71.1109C2.76999 72.0245 8.08451 74.7119 12.347 78.0324C12.7507 78.3601 12.8305 78.9441 12.5396 79.3097C12.2102 79.742 11.6097 79.8358 11.2067 79.5085C7.15935 76.4044 2.16513 73.8159 -2.89683 72.9778C-3.3922 72.8645 -3.74207 72.3894 -3.66637 71.8969C-3.55082 71.3385 -3.06689 70.9977 -2.57152 71.1109Z" fill="#EEECF9"/>
<path fill-rule="evenodd" clip-rule="evenodd" d="M-2.81634 70.9972C2.31335 70.1744 6.58201 66.1575 9.66912 62.1602C9.95996 61.7947 10.5609 61.7017 10.9646 62.0294C11.3677 62.3567 11.4466 62.9407 11.1166 63.3726C7.78443 67.673 3.06394 71.9595 -2.53522 72.8634C-3.03723 72.9253 -3.5073 72.5583 -3.59429 72.0593C-3.68194 71.56 -3.31769 71.0595 -2.81634 70.9972Z" fill="#EEECF9"/>
</g>
<defs>
<clipPath id="clip0_277_4875">
<rect width="94.4075" height="94.4075" fill="white" transform="matrix(1.00628 0 0 -1.00628 0 95)"/>
</clipPath>
</defs>
</svg>
