<svg width="49" height="49" viewBox="0 0 49 49" fill="none" xmlns="http://www.w3.org/2000/svg">
<path d="M24.5001 44.9164C19.7702 43.7254 15.8652 41.0114 12.785 36.7743C9.70484 32.5371 8.16543 27.8331 8.16679 22.6623V10.2081L24.5001 4.08315L40.8334 10.2081V22.6623C40.8334 27.8345 39.294 32.5392 36.2152 36.7763C33.1363 41.0134 29.2313 43.7268 24.5001 44.9164Z" fill="white"/>
<path d="M29.7918 22.0989H28.6159V19.7469C28.6159 17.4537 26.7931 15.6309 24.4999 15.6309C22.2067 15.6309 20.3839 17.4537 20.3839 19.7469V22.0989H19.2079V19.7469C19.2079 16.8069 21.5599 14.4549 24.4999 14.4549C27.4399 14.4549 29.7918 16.8069 29.7918 19.7469V22.0989Z" fill="#493D9E"/>
<path d="M29.2038 32.0949H19.7959C18.7963 32.0949 18.0319 31.3305 18.0319 30.3309V23.275C18.0319 22.2754 18.7963 21.511 19.7959 21.511H29.2038C30.2034 21.511 30.9678 22.2754 30.9678 23.275V30.3309C30.9678 31.3305 30.2034 32.0949 29.2038 32.0949ZM19.7959 22.687C19.4431 22.687 19.2079 22.9222 19.2079 23.275V30.3309C19.2079 30.6837 19.4431 30.9189 19.7959 30.9189H29.2038C29.5566 30.9189 29.7918 30.6837 29.7918 30.3309V23.275C29.7918 22.9222 29.5566 22.687 29.2038 22.687H19.7959Z" fill="#493D9E"/>
<path d="M24.5001 26.215C25.1496 26.215 25.6761 25.6884 25.6761 25.039C25.6761 24.3895 25.1496 23.863 24.5001 23.863C23.8506 23.863 23.3241 24.3895 23.3241 25.039C23.3241 25.6884 23.8506 26.215 24.5001 26.215Z" fill="#493D9E"/>
<path d="M24.7939 25.039H24.2059L23.6179 28.567H25.3819L24.7939 25.039Z" fill="#493D9E"/>
</svg>
